<svg id="Layer_1" data-name="Layer 1" xmlns="http://www.w3.org/2000/svg" xmlns:xlink="http://www.w3.org/1999/xlink" width="177.00" height="50.00" viewBox="0 0 177 50"><defs><style>.cls-1{fill:#874393;}.cls-2{fill:#26255e;}.cls-3{fill:url(#linear-gradient);}.cls-4{fill:url(#linear-gradient-2);}.cls-5{fill:url(#linear-gradient-3);}.cls-6{fill:#884493;}</style><linearGradient id="linear-gradient" x1="122.74" y1="24.48" x2="172.11" y2="24.48" gradientUnits="userSpaceOnUse"><stop offset="0" stop-color="#26255e"/><stop offset="1" stop-color="#874393"/></linearGradient><linearGradient id="linear-gradient-2" x1="131.02" y1="29.46" x2="163.19" y2="29.46" gradientUnits="userSpaceOnUse"><stop offset="0" stop-color="#874393"/><stop offset="1" stop-color="#26255e"/></linearGradient><linearGradient id="linear-gradient-3" x1="145.15" y1="37.5" x2="163.19" y2="37.5" gradientUnits="userSpaceOnUse"><stop offset="0" stop-color="#874393"/><stop offset="1" stop-color="#20254f"/></linearGradient></defs><circle class="cls-1" cx="147.11" cy="25" r="7.39"/><path class="cls-2" d="M141.45,45.26v3.49a.48.48,0,0,1-.59.46h0a24.48,24.48,0,0,1-6-2.41A25,25,0,0,1,129.7,43a25.39,25.39,0,0,1-4-5.08,24.43,24.43,0,0,1-2.6-6h0a24.49,24.49,0,0,1-.94-5.84.59.59,0,0,1,.59-.62h3.13a.6.6,0,0,1,.59.57,21,21,0,0,0,.79,4.78A20.8,20.8,0,0,0,137,43.07a21.13,21.13,0,0,0,4.09,1.74A.47.47,0,0,1,141.45,45.26Z"/><path class="cls-3" d="M172.11,25c0,.14,0,.28,0,.42a25.22,25.22,0,0,1-.94,6.43,25.11,25.11,0,0,1-16.82,17.09.6.6,0,0,1-.76-.57V45.08a.6.6,0,0,1,.4-.56A20,20,0,0,0,157.37,43,20.7,20.7,0,0,0,167,30.73a20.23,20.23,0,0,0,.8-5.31c0-.14,0-.28,0-.42a20.63,20.63,0,0,0-.6-4.94,20.16,20.16,0,0,0-2-5A20.75,20.75,0,0,0,162,10.64a20.51,20.51,0,0,0-4.29-3.41h0a20.82,20.82,0,0,0-5-2.16c-.47-.13-.94-.25-1.42-.34a18.89,18.89,0,0,0-2-.31,19.08,19.08,0,0,0-2-.11h-.11c-.66,0-1.31,0-2,.09s-1.39.17-2.07.3c-.45.09-.89.19-1.33.31a20.72,20.72,0,0,0-9.43,5.51,21,21,0,0,0-3.3,4.42,20.35,20.35,0,0,0-1.89,4.65.58.58,0,0,1-.57.43h-3.22a.59.59,0,0,1-.58-.72l.09-.39a25.16,25.16,0,0,1,2.44-6.13,24.64,24.64,0,0,1,4-5.3A25.08,25.08,0,0,1,140.64.84c.8-.21,1.61-.38,2.44-.52q1-.17,2.07-.24c.65,0,1.3-.08,2-.08h.11c.68,0,1.36,0,2,.09s1.36.14,2,.25a25.83,25.83,0,0,1,2.53.57,24.41,24.41,0,0,1,6.07,2.59A25.17,25.17,0,0,1,169,12.87a24.45,24.45,0,0,1,2.39,6.07A24.72,24.72,0,0,1,172.11,25Z"/><path class="cls-4" d="M163.19,25c0,.14,0,.28,0,.42a16,16,0,0,1-2.31,7.91A16.16,16.16,0,0,1,155.06,39a16,16,0,0,1-3.79,1.56v0a15.35,15.35,0,0,1-2,.4v8.42a.6.6,0,0,1-.56.59c-.48,0-1,0-1.47,0h-.12c-.46,0-.93,0-1.39,0a.59.59,0,0,1-.56-.59V36.79a12.62,12.62,0,0,0,1.95.16h.12a11.35,11.35,0,0,0,2-.19c.32,0,.64-.13.95-.21s.72-.21,1.07-.34a12.32,12.32,0,0,0,1.73-.8,12.44,12.44,0,0,0,2.4-1.8,12.07,12.07,0,0,0,1.88-2.34A11.79,11.79,0,0,0,159,25.42c0-.14,0-.28,0-.42a11.84,11.84,0,0,0-.3-2.68,12.19,12.19,0,0,0-1.09-2.92,12,12,0,0,0-1.84-2.57,12.22,12.22,0,0,0-2.49-2,12.64,12.64,0,0,0-2.06-1,8.63,8.63,0,0,0-.86-.28,11.48,11.48,0,0,0-1.16-.27,11.35,11.35,0,0,0-2-.19h-.12a12.62,12.62,0,0,0-1.95.16c-.38.07-.76.15-1.13.25s-.63.18-.94.29a11.92,11.92,0,0,0-1.63.73l-.4.22a11.78,11.78,0,0,0-2.54,2,11.86,11.86,0,0,0-3,5.58,12.1,12.1,0,0,0-.31,2.71c0,.14,0,.28,0,.42a12,12,0,0,0,.51,3.08,12.13,12.13,0,0,0,3.25,5.21,19.87,19.87,0,0,0,2.25,1.64.61.61,0,0,1,.27.5v3.51a.47.47,0,0,1-.67.43,15.14,15.14,0,0,1-1.46-.71A15.9,15.9,0,0,1,136,36.64a16.26,16.26,0,0,1-2.62-3.23,15.79,15.79,0,0,1-1.71-3.84,16.21,16.21,0,0,1-.65-4.15c0-.14,0-.28,0-.42A16.1,16.1,0,0,1,143,9.46l.13,0a15.64,15.64,0,0,1,4-.5h.12a15.16,15.16,0,0,1,2,.14,15.35,15.35,0,0,1,2,.4l.21.06a15.78,15.78,0,0,1,3.92,1.7,16,16,0,0,1,3.34,2.68,16.15,16.15,0,0,1,4,7.35A16,16,0,0,1,163.19,25Z"/><path class="cls-5" d="M163.19,25c0,.14,0,.28,0,.42a16,16,0,0,1-2.31,7.91A16.16,16.16,0,0,1,155.06,39a16,16,0,0,1-3.79,1.56v0a15.35,15.35,0,0,1-2,.4v8.42a.6.6,0,0,1-.56.59c-.48,0-1,0-1.47,0h-.12c-.46,0-.93,0-1.39,0a.59.59,0,0,1-.56-.59V36.79a12.62,12.62,0,0,0,1.95.16h.12a11.35,11.35,0,0,0,2-.19c.32,0,.64-.13.95-.21s.72-.21,1.07-.34a12.32,12.32,0,0,0,1.73-.8,12.44,12.44,0,0,0,2.4-1.8,12.07,12.07,0,0,0,1.88-2.34A11.79,11.79,0,0,0,159,25.42c0-.14,0-.28,0-.42"/><path class="cls-2" d="M163.19,25c0,.14,0,.28,0,.42a16,16,0,0,1-2.31,7.91A16.16,16.16,0,0,1,155.06,39a16,16,0,0,1-3.79,1.56v0a15.35,15.35,0,0,1-2,.4v8.42a.6.6,0,0,1-.56.59c-.48,0-1,0-1.47,0h-.12c-.46,0-.93,0-1.39,0a.59.59,0,0,1-.56-.59V36.79a12.62,12.62,0,0,0,1.95.16h.12a11.35,11.35,0,0,0,2-.19c.32,0,.64-.13.95-.21s.72-.21,1.07-.34a12.32,12.32,0,0,0,1.73-.8,12.44,12.44,0,0,0,2.4-1.8,12.07,12.07,0,0,0,1.88-2.34A11.79,11.79,0,0,0,159,25.42c0-.14,0-.28,0-.42"/><path class="cls-6" d="M9.07,38.53,6.81,38v-.34a.89.89,0,0,1,.24-.62.93.93,0,0,1,.59-.31l1.85-.24-.21-1.39-1.61.21a2.52,2.52,0,0,0-.83.26,2.41,2.41,0,0,0-.66.52,2.38,2.38,0,0,0-.43.72,2.27,2.27,0,0,0-.16.86v1.35l3.23.76v.3a1,1,0,0,1-1,1H5.39a1.18,1.18,0,0,1-.5-.1,1.09,1.09,0,0,1-.4-.27,1.26,1.26,0,0,1-.28-.4,1.21,1.21,0,0,1-.1-.5V37.35H2.84V40A2.55,2.55,0,0,0,3,41a2.46,2.46,0,0,0,.55.82,2.64,2.64,0,0,0,.83.56,2.59,2.59,0,0,0,1,.2H7.73a2.2,2.2,0,0,0,.92-.19,2.29,2.29,0,0,0,.75-.5,2.45,2.45,0,0,0,.5-.76,2.18,2.18,0,0,0,.19-.91V39.8A1.31,1.31,0,0,0,9.81,39,1.33,1.33,0,0,0,9.07,38.53Z"/><path class="cls-6" d="M12.85,40.26a1.42,1.42,0,0,1-.95,1.34l-1.66.54.39,1.19,1.59-.54a3.23,3.23,0,0,0,.78-.41,2.89,2.89,0,0,0,.6-.61A2.85,2.85,0,0,0,14,41a2.56,2.56,0,0,0,.14-.87V36.27H12.85Z"/><rect class="cls-6" x="15.48" y="32.49" width="1.27" height="7.9"/><rect class="cls-6" x="20.53" y="31.88" width="1.33" height="1.33"/><path class="cls-6" d="M36.74,36.3a1.94,1.94,0,0,0-.6-.41,1.77,1.77,0,0,0-.73-.15H31l2.21-2.6-.91-.85-3.39,4,.91.88h5.69a.52.52,0,0,1,.35.14.49.49,0,0,1,.15.35v.82a.41.41,0,0,1-.13.32.36.36,0,0,1-.26.13H23.8a.58.58,0,0,1-.37-.13.58.58,0,0,1-.21-.32L22,34.26l-1.2.44L21.76,38a.81.81,0,0,1,0,.31.74.74,0,0,1-.39.48.71.71,0,0,1-.32.07h-1.7a.24.24,0,0,1-.18-.07.24.24,0,0,1-.08-.19V37.36H18v1.5a1.37,1.37,0,0,0,.13.59,1.66,1.66,0,0,0,.32.49,1.51,1.51,0,0,0,.49.33,1.45,1.45,0,0,0,.59.12H21a2,2,0,0,0,.81-.17,2.1,2.1,0,0,0,.65-.43,2.56,2.56,0,0,0,.59.42,1.8,1.8,0,0,0,.82.18H35.36a2.07,2.07,0,0,0,.74-.14,2.13,2.13,0,0,0,.62-.4,1.81,1.81,0,0,0,.42-.6,1.76,1.76,0,0,0,.16-.76v-.86a1.8,1.8,0,0,0-.15-.73A1.94,1.94,0,0,0,36.74,36.3Z"/><polygon class="cls-6" points="31.34 32.32 30.72 31.72 28.02 34.88 28.7 35.41 31.34 32.32"/><path class="cls-6" d="M48.11,38.33a.53.53,0,0,1-.16.39.5.5,0,0,1-.39.17h-3a.65.65,0,0,1-.46-.18.58.58,0,0,1-.21-.44V34.08H42.63V35l-1.53.37a1.65,1.65,0,0,0-.62.27,2.2,2.2,0,0,0-.49.47,2,2,0,0,0-.33.59,2.26,2.26,0,0,0-.11.69v.73a1.56,1.56,0,0,0,.11.57,1.62,1.62,0,0,0,.31.46,1.67,1.67,0,0,0,.47.31,1.31,1.31,0,0,0,.56.12h1.13a1.49,1.49,0,0,0,.4-.06,1,1,0,0,0,.35-.14,2.21,2.21,0,0,0,.68.77,1.73,1.73,0,0,0,1,.29h2.76a2,2,0,0,0,.8-.16,2.21,2.21,0,0,0,1.1-1.1,2,2,0,0,0,.16-.8V35.94H48.11ZM42.63,38H40.82v-.6A.82.82,0,0,1,41,36.9a.72.72,0,0,1,.46-.3l1.18-.29Z"/><rect class="cls-6" x="45.08" y="41.77" width="1.31" height="1.33"/><rect class="cls-6" x="46.99" y="41.77" width="1.33" height="1.33"/><path class="cls-6" d="M59.79,40a1.37,1.37,0,0,0,.3-.45A1.26,1.26,0,0,0,60.2,39V37.63a1.8,1.8,0,0,0-.15-.73,1.91,1.91,0,0,0-.4-.6,1.94,1.94,0,0,0-.6-.41,1.85,1.85,0,0,0-.74-.15h-.64a1.84,1.84,0,0,0-.62.11,2,2,0,0,0-.52.3,1.77,1.77,0,0,0-.4.46,1.86,1.86,0,0,0-.23.59l-.23,1.18a.6.6,0,0,1-.21.37.56.56,0,0,1-.4.14H52.45a.54.54,0,0,1-.4-.16.57.57,0,0,1-.16-.39V32.49H50.62v5.88a1.93,1.93,0,0,0,.17.79,2,2,0,0,0,.43.64,1.89,1.89,0,0,0,.65.43,1.91,1.91,0,0,0,.78.16H55a1.74,1.74,0,0,0,.69-.14,1.5,1.5,0,0,0,.59-.52,1.51,1.51,0,0,0,.56.52,1.66,1.66,0,0,0,.66.14h1.34a1.41,1.41,0,0,0,.54-.11A1.23,1.23,0,0,0,59.79,40Zm-.86-1.09H57.31a.33.33,0,0,1-.28-.13.33.33,0,0,1-.08-.3l.19-.92a.46.46,0,0,1,.15-.26.42.42,0,0,1,.27-.09h.94a.41.41,0,0,1,.43.43Z"/><path class="cls-6" d="M70.86,38.89H70a.52.52,0,0,1-.41-.19.48.48,0,0,1-.11-.44l.35-1.73-1.25-.23-.42,2.08a.61.61,0,0,1-.22.37.6.6,0,0,1-.41.14h-.33a.5.5,0,0,1-.39-.17.53.53,0,0,1-.16-.39V36.26H65.39v2.05a.57.57,0,0,1-.16.41.54.54,0,0,1-.39.17H63.46a.62.62,0,0,1-.38-.13.42.42,0,0,1-.17-.34V36.26H61.64v4a1.39,1.39,0,0,1-.26.83,1.26,1.26,0,0,1-.69.51L59,42.13l.39,1.19L61,42.78a3.21,3.21,0,0,0,.76-.39,3,3,0,0,0,.6-.58,3.06,3.06,0,0,0,.4-.73,2.64,2.64,0,0,0,.14-.84V40a.62.62,0,0,0,.35.29,1.22,1.22,0,0,0,.41.07h.94a1.84,1.84,0,0,0,.77-.17,1.65,1.65,0,0,0,.64-.51,1.69,1.69,0,0,0,.63.51,1.85,1.85,0,0,0,.78.17,1.72,1.72,0,0,0,.73-.16,1.68,1.68,0,0,0,.61-.53,1.39,1.39,0,0,0,.55.53,1.49,1.49,0,0,0,.69.16h.72a1.41,1.41,0,0,0,.54-.11,1.19,1.19,0,0,0,.45-.3,1.37,1.37,0,0,0,.3-.45,1.26,1.26,0,0,0,.11-.55V36H70.86Z"/><rect class="cls-6" x="77.15" y="34.62" width="1.33" height="1.33"/><rect class="cls-6" x="79.07" y="34.62" width="1.33" height="1.33"/><path class="cls-6" d="M94.44,39.25a1.91,1.91,0,0,0,.16-.76v-.86a1.8,1.8,0,0,0-.15-.73,1.94,1.94,0,0,0-.41-.6,2.21,2.21,0,0,0-.6-.41,1.8,1.8,0,0,0-.73-.15h-4.4l2.22-2.6-.91-.85-3.39,4,.91.88h5.68a.52.52,0,0,1,.36.14.49.49,0,0,1,.15.35v.82a.42.42,0,0,1-.14.33.47.47,0,0,1-.31.12H83.7a.55.55,0,0,1-.55-.55V36.27H81.88v2.08a.53.53,0,0,1-.16.39.56.56,0,0,1-.39.15H76.6a.94.94,0,0,1-.68-.27.9.9,0,0,1-.27-.67v-2H74.38v2.11a2.31,2.31,0,0,0,.18.91,2.39,2.39,0,0,0,.51.74,2.28,2.28,0,0,0,.74.51,2.31,2.31,0,0,0,.91.18H81.1a1.85,1.85,0,0,0,.78-.16,1.76,1.76,0,0,0,.65-.52,1.88,1.88,0,0,0,.62.5,1.71,1.71,0,0,0,.77.18h8.74A1.94,1.94,0,0,0,94,39.85,1.84,1.84,0,0,0,94.44,39.25Z"/><rect class="cls-6" x="104.97" y="33.92" width="1.33" height="1.33"/><rect class="cls-6" x="103.99" y="32.17" width="1.33" height="1.33"/><rect class="cls-6" x="103.04" y="33.92" width="1.33" height="1.33"/><path class="cls-6" d="M107,36v2.94h-.85a.52.52,0,0,1-.41-.19.48.48,0,0,1-.11-.44l.35-1.73-1.28-.23-.43,2.08a.57.57,0,0,1-.22.37.58.58,0,0,1-.4.14h-.3a.5.5,0,0,1-.39-.17.53.53,0,0,1-.16-.39V36.26h-1.27v2.05a.62.62,0,0,1-.16.41.54.54,0,0,1-.39.17H97.86a.58.58,0,0,1-.38-.13.41.41,0,0,1-.18-.34V36.26H96v4a1.46,1.46,0,0,1-.26.83,1.32,1.32,0,0,1-.7.51l-1.66.54.39,1.19,1.59-.54a3.21,3.21,0,0,0,.76-.39,3,3,0,0,0,.6-.58,3.06,3.06,0,0,0,.4-.73,2.39,2.39,0,0,0,.14-.84V40a.62.62,0,0,0,.35.29,1.28,1.28,0,0,0,.42.07h2.63a1.85,1.85,0,0,0,.78-.17,1.72,1.72,0,0,0,.64-.51,1.69,1.69,0,0,0,.63.51,1.85,1.85,0,0,0,.78.17,1.61,1.61,0,0,0,1.34-.69,1.39,1.39,0,0,0,.55.53,1.46,1.46,0,0,0,.69.16h.72a1.41,1.41,0,0,0,.54-.11,1.19,1.19,0,0,0,.45-.3,1.37,1.37,0,0,0,.3-.45,1.42,1.42,0,0,0,.11-.55V36Z"/><path class="cls-2" d="M32.6,17.27a.7.7,0,0,0-.7-.7H30.21a.71.71,0,0,0-.7.71v3.63a.7.7,0,0,1-.7.7H21.43v-2a3.75,3.75,0,0,0-.13-.77,4.51,4.51,0,0,0-2-2.69h0A4.37,4.37,0,0,0,17,15.46a4.43,4.43,0,0,0-2.34.66h0l0,0a4.44,4.44,0,0,0-.8.63,5.89,5.89,0,0,0-.51.61,4.46,4.46,0,0,0-.75,2h0v0s0,.06,0,.09,0,.28,0,.42,0,.3,0,.45,0,0,0,0a.28.28,0,0,0,0,.09v0s0,0,0,0a.28.28,0,0,0,0,.09,4.47,4.47,0,0,0,3.1,3.56,4.15,4.15,0,0,0,.61.14l2.05,0,0,.71a.71.71,0,0,1-.7.67H13.18a.7.7,0,0,0-.7.7v1.37a.7.7,0,0,0,.7.7H18.1q3.34,0,3.35-3.09V24.38h7.84q3.34,0,3.35-3.1ZM18.24,21.15l-.13.12-.06.06a1.56,1.56,0,0,1-.51.27l-.07,0-.16,0-.15,0h-.41l-.13,0h-.05l-.13,0h0l-.1,0h0l-.09,0a1.41,1.41,0,0,1-.24-.13l-.11-.08a1.27,1.27,0,0,1-.12-.1l-.05-.05,0,0-.06-.07a1.33,1.33,0,0,1-.14-.19l-.06-.09s0,0,0,0,0,0,0,0a1.48,1.48,0,0,1-.12-.29v0a2.21,2.21,0,0,1,0-.25h0v0h0a1.09,1.09,0,0,1,0-.18,1,1,0,0,1,0-.17h0v0h0l0-.14a.44.44,0,0,1,0-.1l0-.1h0l0-.1a0,0,0,0,0,0,0,.47.47,0,0,1,0-.1,1.09,1.09,0,0,1,.08-.15l.09-.14.1-.12a1.36,1.36,0,0,1,.12-.12,0,0,0,0,1,0,0l.1-.08.16-.12h0l.06,0,.12-.05.07,0,.14-.05a.27.27,0,0,1,.12,0,.85.85,0,0,1,.23,0h.36l.15,0,.15,0,.08,0,.11.05.1.05a.31.31,0,0,1,.1.05h0l0,0a2.48,2.48,0,0,1,.26.19l.09.1,0,0,.07.08a1.37,1.37,0,0,1,.13.2.22.22,0,0,1,.05.08,1.33,1.33,0,0,1,.13.33,0,0,0,0,1,0,0,1.06,1.06,0,0,1,0,.19s0,0,0,.08h0v0s0,0,0,0v.26s0,0,0,.05h0a.47.47,0,0,1,0,.17.58.58,0,0,1,0,.14v.05l-.06.15,0,.11a1.77,1.77,0,0,1-.21.32l-.05.06Z"/><path class="cls-2" d="M108.83,12.91a.71.71,0,0,0-.7-.69h-1.51a.71.71,0,0,0-.71.71l0,10.43v.52a.69.69,0,0,0,.71.69h1.69a.7.7,0,0,0,.7-.7Z"/><path class="cls-2" d="M104.68,17.78V21.3c0,2.07-1.09,3.1-3.32,3.1H99.08a2.54,2.54,0,0,1-1.28-.35,3.38,3.38,0,0,1-.83-.71,3.4,3.4,0,0,1-2.78,1.23,4.56,4.56,0,0,1-1.5-.22,3.24,3.24,0,0,1-1.46-1,3.56,3.56,0,0,1-2.83,1.25,4.58,4.58,0,0,1-1.08-.12A3.39,3.39,0,0,1,86.19,24a.68.68,0,0,1-.68.68H74.42a.69.69,0,0,1-.7-.69l0-11.07a.7.7,0,0,1,.7-.7h1.69a.7.7,0,0,1,.7.7v8.31a.7.7,0,0,0,.7.7h4.75a.7.7,0,0,0,.7-.7V17.3a.7.7,0,0,1,.7-.69H85.4a.7.7,0,0,1,.7.69v3.21a1.43,1.43,0,0,0,1.42,1.42h0A1.43,1.43,0,0,0,89,20.51V17.3a.69.69,0,0,1,.69-.69H91.4A.7.7,0,0,1,92,17v3.48a1.43,1.43,0,0,0,1.35,1.42h.15a1.43,1.43,0,0,0,1.39-1.42v-3.3a.69.69,0,0,1,.69-.6h1.69a.69.69,0,0,1,.7.69V21a.7.7,0,0,0,.7.7h2.19a.69.69,0,0,0,.69-.7V17.78a.71.71,0,0,1,.7-.7H104A.7.7,0,0,1,104.68,17.78Z"/><path class="cls-2" d="M11.22,21.3a2.66,2.66,0,0,1-2.11,3,5.16,5.16,0,0,1-1.24.14H4.63a2.54,2.54,0,0,1-1.82-.71A2.79,2.79,0,0,1,2,21.6l0-2.86V12.92a.71.71,0,0,1,.7-.7H4.33a.71.71,0,0,1,.7.7V20a1.61,1.61,0,0,0,1.6,1.62,1.5,1.5,0,0,0,1-.46,1.55,1.55,0,0,0,.45-1.1V17.22a.68.68,0,0,1,.67-.61h1.69a.71.71,0,0,1,.71.69Z"/><rect class="cls-2" x="97.61" y="25.98" width="5.64" height="2.57" rx="0.15"/><rect class="cls-2" x="66.84" y="12.22" width="5.64" height="2.57" rx="0.15"/><rect class="cls-2" x="58.28" y="25.98" width="5.64" height="2.57" rx="0.15"/><rect class="cls-2" x="3.76" y="25.98" width="5.64" height="2.57" rx="0.15"/><path class="cls-2" d="M72.49,17.8v3.5c0,2.07-1.1,3.1-3.33,3.1H67.8A2.4,2.4,0,0,1,66.47,24a2.74,2.74,0,0,1-.57-.51h0a3.33,3.33,0,0,1-2.68,1H60.66a2.54,2.54,0,0,1-1.28-.35,3.42,3.42,0,0,1-.81-.69h0a3.41,3.41,0,0,1-2.77,1.21,4.56,4.56,0,0,1-1.5-.22,3.27,3.27,0,0,1-1.44-1h0A3.52,3.52,0,0,1,50,24.57a4.58,4.58,0,0,1-1.08-.12A3.34,3.34,0,0,1,47.78,24a.43.43,0,0,0,0,.05.86.86,0,0,1,0,.17,6.4,6.4,0,0,1-12.69-1.07V19.08a.7.7,0,0,1,.7-.7h1.77a.7.7,0,0,1,.7.7V23h0A3.17,3.17,0,0,0,44.55,23h0a.1.1,0,0,0,0,0V17.78a.71.71,0,0,1,.7-.7H47a.7.7,0,0,1,.7.7v2.71a1.44,1.44,0,0,0,.42,1,1.45,1.45,0,0,0,2.47-1.08V17.8a.72.72,0,0,1,.72-.72H53a.7.7,0,0,1,.64.42h0v3A1.43,1.43,0,0,0,55,21.93h.16a1.42,1.42,0,0,0,1.38-1.42V17.69a.7.7,0,0,1,.69-.61h1.67a.72.72,0,0,1,.72.72v3.14a.72.72,0,0,0,.72.72H62.7a.72.72,0,0,0,.72-.72V17.33a.72.72,0,0,1,.72-.72h1.65a.73.73,0,0,1,.72.64v3.27a1.41,1.41,0,0,0,1.41,1.41h0a1.43,1.43,0,0,0,1.43-1.42V17.8a.72.72,0,0,1,.72-.72h1.65A.72.72,0,0,1,72.49,17.8Z"/><rect class="cls-2" x="29.14" y="25.98" width="2.54" height="2.54" rx="0.14"/><rect class="cls-2" x="26.16" y="25.98" width="2.54" height="2.54" rx="0.14"/><rect class="cls-2" x="23.18" y="25.98" width="2.54" height="2.54" rx="0.14"/><path class="cls-2" d="M12.46,20.06h0V20A.25.25,0,0,0,12.46,20.06Z"/><path class="cls-2" d="M11.44,20.08h0V20A.37.37,0,0,0,11.44,20.08Z"/><path class="cls-2" d="M15,20v.11h0v0S15,20,15,20Z"/></svg>